# xmcd CD database file
#
# Track frame offsets:
#	150
#	10560
#	20120
#	30650
#	45595
#	58567
#	72547
#	86562
#	98357
#	116620
#	148927
#	164267
#	192602
#	203425
#	213227
#	230795
#	242797
#	252027
#	261260
#	272417
#	282325
#	294165
#
# Disc length: 4081 seconds
#
# Revision: 6
# Processed by: cddbd v1.5.1PL0 Copyright (c) Steve Scherf et al.
# Submitted via: CDex 1.51
#
DISCID=3b0fef16
DTITLE=Buddy Guy - The Complete Chess Studio Recordings - CD 1
DYEAR=1997
DGENRE=Blues
TTITLE0=First Time I Met The Blues
TTITLE1=Slop Around
TTITLE2=I Got My Eyes On You
TTITLE3=Broken Hearted Blues
TTITLE4=Let Me Love You Baby
TTITLE5=I Got A Strange Feeling
TTITLE6=Gully Hully
TTITLE7=Ten Years Ago
TTITLE8=Watch Yourself
TTITLE9=Stone Crazy
TTITLE10=Skippin'
TTITLE11=I Found A True Love
TTITLE12=Hard But It's Fair
TTITLE13=Baby (Baby, Baby, Baby)
TTITLE14=When My Left Eye Jumps
TTITLE15=That's It
TTITLE16=The Treasure Untold
TTITLE17=American Bandstand (a.k.a. American Bandstand Thing)
TTITLE18=No Lie
TTITLE19=$100 Bill
TTITLE20=My Love Is Real
TTITLE21=Buddy's Boogie
EXTD=1997 MCA Records, Inc. (MCD 09337) YEAR: 1997
EXTT0=
EXTT1=
EXTT2=
EXTT3=
EXTT4=
EXTT5=
EXTT6=
EXTT7=
EXTT8=
EXTT9=
EXTT10=
EXTT11=
EXTT12=
EXTT13=
EXTT14=
EXTT15=
EXTT16=
EXTT17=
EXTT18=
EXTT19=
EXTT20=
EXTT21=
PLAYORDER=
